<svg xmlns="http://www.w3.org/2000/svg" data-v-fde0c5aa="" viewBox="0 100 263.02 100" width="263.02px" height="50px"><!----><defs data-v-fde0c5aa=""><!----></defs><defs data-v-fde0c5aa=""><linearGradient data-v-fde0c5aa="" gradientTransform="rotate(25)" id="88834af7-bfb1-43ad-98ad-51fb28aed397" x1="0%" y1="0%" x2="100%" y2="0%"><stop data-v-fde0c5aa="" offset="0%" stop-color="#666C35" stop-opacity="1"/><stop data-v-fde0c5aa="" offset="100%" stop-color="#77D636" stop-opacity="1"/></linearGradient></defs><g data-v-fde0c5aa="" id="8f250017-83e4-42c4-b2b4-56d865695c85" fill="url(#88834af7-bfb1-43ad-98ad-51fb28aed397)" transform="matrix(3.2728354062011245,0,0,3.2728354062011245,36.89080620804798,119.69354495009455)"><path d="M1.30 13.09L1.30 13.09Q1.16 13.09 1.06 12.98L1.06 12.98L1.06 12.98Q0.95 12.88 0.95 12.74L0.95 12.74L0.95 3.65L0.95 3.65Q0.95 3.50 1.05 3.39L1.05 3.39L1.05 3.39Q1.15 3.29 1.30 3.29L1.30 3.29L7.81 3.29L7.81 3.29Q7.97 3.29 8.07 3.39L8.07 3.39L8.07 3.39Q8.18 3.50 8.18 3.65L8.18 3.65L8.18 5.14L8.18 5.14Q8.18 5.29 8.07 5.39L8.07 5.39L8.07 5.39Q7.97 5.49 7.81 5.49L7.81 5.49L3.53 5.49L3.53 7.43L7.53 7.43L7.53 7.43Q7.69 7.43 7.79 7.54L7.79 7.54L7.79 7.54Q7.90 7.64 7.90 7.80L7.90 7.80L7.90 9.28L7.90 9.28Q7.90 9.44 7.79 9.53L7.79 9.53L7.79 9.53Q7.69 9.63 7.53 9.63L7.53 9.63L3.53 9.63L3.53 12.74L3.53 12.74Q3.53 12.88 3.43 12.98L3.43 12.98L3.43 12.98Q3.33 13.09 3.18 13.09L3.18 13.09L1.30 13.09ZM9.84 4.80L9.84 4.80Q9.69 4.80 9.59 4.70L9.59 4.70L9.59 4.70Q9.49 4.59 9.49 4.44L9.49 4.44L9.49 3.14L9.49 3.14Q9.49 2.98 9.60 2.88L9.60 2.88L9.60 2.88Q9.70 2.77 9.84 2.77L9.84 2.77L11.59 2.77L11.59 2.77Q11.75 2.77 11.85 2.88L11.85 2.88L11.85 2.88Q11.96 2.98 11.96 3.14L11.96 3.14L11.96 4.44L11.96 4.44Q11.96 4.59 11.85 4.70L11.85 4.70L11.85 4.70Q11.75 4.80 11.59 4.80L11.59 4.80L9.84 4.80ZM9.84 13.09L9.84 13.09Q9.70 13.09 9.60 12.98L9.60 12.98L9.60 12.98Q9.49 12.88 9.49 12.74L9.49 12.74L9.49 6.16L9.49 6.16Q9.49 6.01 9.60 5.91L9.60 5.91L9.60 5.91Q9.70 5.81 9.84 5.81L9.84 5.81L11.59 5.81L11.59 5.81Q11.75 5.81 11.85 5.91L11.85 5.91L11.85 5.91Q11.96 6.01 11.96 6.16L11.96 6.16L11.96 12.74L11.96 12.74Q11.96 12.89 11.85 12.99L11.85 12.99L11.85 12.99Q11.75 13.09 11.59 13.09L11.59 13.09L9.84 13.09ZM16.60 13.23L16.60 13.23Q15.46 13.23 14.69 12.91L14.69 12.91L14.69 12.91Q13.92 12.59 13.55 12.14L13.55 12.14L13.55 12.14Q13.17 11.69 13.17 11.33L13.17 11.33L13.17 11.33Q13.17 11.19 13.28 11.09L13.28 11.09L13.28 11.09Q13.38 11.00 13.51 11.00L13.51 11.00L15.20 11.00L15.20 11.00Q15.29 11.00 15.34 11.06L15.34 11.06L15.34 11.06Q15.58 11.21 15.61 11.24L15.61 11.24L15.61 11.24Q15.88 11.44 16.11 11.54L16.11 11.54L16.11 11.54Q16.34 11.65 16.66 11.65L16.66 11.65L16.66 11.65Q17.04 11.65 17.28 11.50L17.28 11.50L17.28 11.50Q17.53 11.35 17.53 11.09L17.53 11.09L17.53 11.09Q17.53 10.86 17.40 10.72L17.40 10.72L17.40 10.72Q17.26 10.58 16.89 10.45L16.89 10.45L16.89 10.45Q16.52 10.32 15.76 10.18L15.76 10.18L15.76 10.18Q13.34 9.69 13.34 7.94L13.34 7.94L13.34 7.94Q13.34 7.36 13.71 6.84L13.71 6.84L13.71 6.84Q14.08 6.31 14.81 5.99L14.81 5.99L14.81 5.99Q15.53 5.67 16.53 5.67L16.53 5.67L16.53 5.67Q17.56 5.67 18.30 5.98L18.30 5.98L18.30 5.98Q19.05 6.30 19.45 6.74L19.45 6.74L19.45 6.74Q19.84 7.18 19.84 7.55L19.84 7.55L19.84 7.55Q19.84 7.67 19.75 7.77L19.75 7.77L19.75 7.77Q19.66 7.87 19.53 7.87L19.53 7.87L17.99 7.87L17.99 7.87Q17.86 7.87 17.79 7.81L17.79 7.81L17.79 7.81Q17.63 7.73 17.46 7.60L17.46 7.60L17.46 7.60Q17.21 7.43 17.02 7.34L17.02 7.34L17.02 7.34Q16.83 7.25 16.53 7.25L16.53 7.25L16.53 7.25Q16.18 7.25 15.99 7.41L15.99 7.41L15.99 7.41Q15.79 7.56 15.79 7.80L15.79 7.80L15.79 7.80Q15.79 8.01 15.91 8.14L15.91 8.14L15.91 8.14Q16.03 8.27 16.40 8.40L16.40 8.40L16.40 8.40Q16.77 8.53 17.53 8.67L17.53 8.67L17.53 8.67Q18.90 8.90 19.52 9.51L19.52 9.51L19.52 9.51Q20.15 10.12 20.15 10.93L20.15 10.93L20.15 10.93Q20.15 11.98 19.22 12.61L19.22 12.61L19.22 12.61Q18.28 13.23 16.60 13.23L16.60 13.23ZM21.71 13.09L21.71 13.09Q21.56 13.09 21.45 12.99L21.45 12.99L21.45 12.99Q21.35 12.89 21.35 12.74L21.35 12.74L21.35 3.50L21.35 3.50Q21.35 3.35 21.45 3.25L21.45 3.25L21.45 3.25Q21.56 3.15 21.71 3.15L21.71 3.15L23.60 3.15L23.60 3.15Q23.76 3.15 23.86 3.25L23.86 3.25L23.86 3.25Q23.97 3.35 23.97 3.50L23.97 3.50L23.97 6.62L23.97 6.62Q24.78 5.67 26.17 5.67L26.17 5.67L26.17 5.67Q26.96 5.67 27.61 6.03L27.61 6.03L27.61 6.03Q28.25 6.40 28.62 7.11L28.62 7.11L28.62 7.11Q28.98 7.83 28.98 8.83L28.98 8.83L28.98 12.74L28.98 12.74Q28.98 12.89 28.88 12.99L28.88 12.99L28.88 12.99Q28.77 13.09 28.62 13.09L28.62 13.09L26.71 13.09L26.71 13.09Q26.57 13.09 26.47 12.98L26.47 12.98L26.47 12.98Q26.36 12.88 26.36 12.74L26.36 12.74L26.36 8.92L26.36 8.92Q26.36 8.30 26.05 7.96L26.05 7.96L26.05 7.96Q25.75 7.62 25.17 7.62L25.17 7.62L25.17 7.62Q24.61 7.62 24.29 7.96L24.29 7.96L24.29 7.96Q23.97 8.30 23.97 8.92L23.97 8.92L23.97 12.74L23.97 12.74Q23.97 12.89 23.86 12.99L23.86 12.99L23.86 12.99Q23.76 13.09 23.60 13.09L23.60 13.09L21.71 13.09ZM31.88 15.75L31.88 15.75Q31.75 15.75 31.67 15.67L31.67 15.67L31.67 15.67Q31.58 15.58 31.58 15.46L31.58 15.46L31.58 15.46Q31.58 15.36 31.61 15.27L31.61 15.27L32.72 12.64L30.03 6.29L30.03 6.29Q29.99 6.17 29.99 6.13L29.99 6.13L29.99 6.13Q30.02 5.99 30.11 5.90L30.11 5.90L30.11 5.90Q30.20 5.81 30.32 5.81L30.32 5.81L31.99 5.81L31.99 5.81Q32.28 5.81 32.40 6.10L32.40 6.10L33.95 10.08L35.55 6.10L35.55 6.10Q35.69 5.81 35.97 5.81L35.97 5.81L37.62 5.81L37.62 5.81Q37.74 5.81 37.84 5.90L37.84 5.90L37.84 5.90Q37.93 5.99 37.93 6.10L37.93 6.10L37.93 6.10Q37.93 6.20 37.90 6.29L37.90 6.29L33.94 15.46L33.94 15.46Q33.80 15.75 33.50 15.75L33.50 15.75L31.88 15.75ZM41.65 13.23L41.65 13.23Q40.29 13.23 39.52 12.38L39.52 12.38L39.52 12.38Q38.74 11.52 38.68 9.94L38.68 9.94L38.67 9.45L38.68 8.95L38.68 8.95Q38.74 7.42 39.52 6.54L39.52 6.54L39.52 6.54Q40.31 5.67 41.65 5.67L41.65 5.67L41.65 5.67Q42.91 5.67 43.68 6.48L43.68 6.48L43.68 3.50L43.68 3.50Q43.68 3.35 43.78 3.25L43.78 3.25L43.78 3.25Q43.89 3.15 44.03 3.15L44.03 3.15L45.84 3.15L45.84 3.15Q45.99 3.15 46.09 3.25L46.09 3.25L46.09 3.25Q46.20 3.35 46.20 3.50L46.20 3.50L46.20 12.74L46.20 12.74Q46.20 12.89 46.09 12.99L46.09 12.99L46.09 12.99Q45.99 13.09 45.84 13.09L45.84 13.09L44.17 13.09L44.17 13.09Q44.03 13.09 43.92 12.98L43.92 12.98L43.92 12.98Q43.82 12.88 43.82 12.74L43.82 12.74L43.82 12.31L43.82 12.31Q43.06 13.23 41.65 13.23L41.65 13.23ZM42.46 11.28L42.46 11.28Q43.06 11.28 43.36 10.90L43.36 10.90L43.36 10.90Q43.65 10.51 43.68 9.93L43.68 9.93L43.68 9.93Q43.71 9.53 43.71 9.39L43.71 9.39L43.71 9.39Q43.71 9.24 43.68 8.88L43.68 8.88L43.68 8.88Q43.65 8.33 43.35 7.97L43.35 7.97L43.35 7.97Q43.05 7.62 42.46 7.62L42.46 7.62L42.46 7.62Q41.83 7.62 41.56 7.99L41.56 7.99L41.56 7.99Q41.29 8.36 41.24 9.02L41.24 9.02L41.23 9.45L41.24 9.88L41.24 9.88Q41.29 10.54 41.56 10.91L41.56 10.91L41.56 10.91Q41.83 11.28 42.46 11.28L42.46 11.28ZM48.15 4.80L48.15 4.80Q47.99 4.80 47.89 4.70L47.89 4.70L47.89 4.70Q47.80 4.59 47.80 4.44L47.80 4.44L47.80 3.14L47.80 3.14Q47.80 2.98 47.90 2.88L47.90 2.88L47.90 2.88Q48.01 2.77 48.15 2.77L48.15 2.77L49.90 2.77L49.90 2.77Q50.05 2.77 50.16 2.88L50.16 2.88L50.16 2.88Q50.26 2.98 50.26 3.14L50.26 3.14L50.26 4.44L50.26 4.44Q50.26 4.59 50.16 4.70L50.16 4.70L50.16 4.70Q50.05 4.80 49.90 4.80L49.90 4.80L48.15 4.80ZM48.15 13.09L48.15 13.09Q48.01 13.09 47.90 12.98L47.90 12.98L47.90 12.98Q47.80 12.88 47.80 12.74L47.80 12.74L47.80 6.16L47.80 6.16Q47.80 6.01 47.90 5.91L47.90 5.91L47.90 5.91Q48.01 5.81 48.15 5.81L48.15 5.81L49.90 5.81L49.90 5.81Q50.05 5.81 50.16 5.91L50.16 5.91L50.16 5.91Q50.26 6.01 50.26 6.16L50.26 6.16L50.26 12.74L50.26 12.74Q50.26 12.89 50.16 12.99L50.16 12.99L50.16 12.99Q50.05 13.09 49.90 13.09L49.90 13.09L48.15 13.09ZM52.21 13.09L52.21 13.09Q52.07 13.09 51.96 12.98L51.96 12.98L51.96 12.98Q51.86 12.88 51.86 12.74L51.86 12.74L51.86 6.16L51.86 6.16Q51.86 6.01 51.96 5.91L51.96 5.91L51.96 5.91Q52.07 5.81 52.21 5.81L52.21 5.81L53.93 5.81L53.93 5.81Q54.08 5.81 54.18 5.91L54.18 5.91L54.18 5.91Q54.28 6.01 54.28 6.16L54.28 6.16L54.28 6.69L54.28 6.69Q54.66 6.23 55.25 5.95L55.25 5.95L55.25 5.95Q55.85 5.67 56.62 5.67L56.62 5.67L56.62 5.67Q57.41 5.67 58.04 6.03L58.04 6.03L58.04 6.03Q58.66 6.40 59.02 7.11L59.02 7.11L59.02 7.11Q59.37 7.83 59.37 8.83L59.37 8.83L59.37 12.74L59.37 12.74Q59.37 12.88 59.28 12.98L59.28 12.98L59.28 12.98Q59.18 13.09 59.02 13.09L59.02 13.09L57.16 13.09L57.16 13.09Q57.01 13.09 56.90 12.99L56.90 12.99L56.90 12.99Q56.80 12.89 56.80 12.74L56.80 12.74L56.80 8.92L56.80 8.92Q56.80 8.29 56.50 7.95L56.50 7.95L56.50 7.95Q56.20 7.62 55.62 7.62L55.62 7.62L55.62 7.62Q55.06 7.62 54.74 7.96L54.74 7.96L54.74 7.96Q54.42 8.30 54.42 8.92L54.42 8.92L54.42 12.74L54.42 12.74Q54.42 12.88 54.32 12.98L54.32 12.98L54.32 12.98Q54.22 13.09 54.07 13.09L54.07 13.09L52.21 13.09ZM64.40 13.23L64.40 13.23Q62.64 13.23 61.69 12.41L61.69 12.41L61.69 12.41Q60.75 11.59 60.66 10.08L60.66 10.08L60.66 10.08Q60.65 9.90 60.65 9.45L60.65 9.45L60.65 9.45Q60.65 9.00 60.66 8.82L60.66 8.82L60.66 8.82Q60.75 7.34 61.72 6.50L61.72 6.50L61.72 6.50Q62.69 5.67 64.40 5.67L64.40 5.67L64.40 5.67Q66.11 5.67 67.08 6.50L67.08 6.50L67.08 6.50Q68.05 7.34 68.14 8.82L68.14 8.82L68.14 8.82Q68.17 9.18 68.17 9.45L68.17 9.45L68.17 9.45Q68.17 9.72 68.14 10.08L68.14 10.08L68.14 10.08Q68.05 11.59 67.11 12.41L67.11 12.41L67.11 12.41Q66.16 13.23 64.40 13.23L64.40 13.23ZM64.40 11.47L64.40 11.47Q64.97 11.47 65.25 11.11L65.25 11.11L65.25 11.11Q65.53 10.75 65.58 10.01L65.58 10.01L65.58 10.01Q65.59 9.87 65.59 9.45L65.59 9.45L65.59 9.45Q65.59 9.03 65.58 8.89L65.58 8.89L65.58 8.89Q65.53 8.16 65.25 7.80L65.25 7.80L65.25 7.80Q64.97 7.43 64.40 7.43L64.40 7.43L64.40 7.43Q63.83 7.43 63.55 7.80L63.55 7.80L63.55 7.80Q63.27 8.16 63.22 8.89L63.22 8.89L63.21 9.45L63.22 10.01L63.22 10.01Q63.27 10.75 63.55 11.11L63.55 11.11L63.55 11.11Q63.83 11.47 64.40 11.47L64.40 11.47Z"/></g></svg>